<?xml version="1.0" standalone="no"?>
<!DOCTYPE svg PUBLIC "-//W3C//DTD SVG 20010904//EN"
 "http://www.w3.org/TR/2001/REC-SVG-20010904/DTD/svg10.dtd">
<svg version="1.0" xmlns="http://www.w3.org/2000/svg"
 width="117.000000pt" height="117.000000pt" viewBox="0 0 117.000000 117.000000"
 preserveAspectRatio="xMidYMid meet">
<metadata>
Created by potrace 1.11, written by Peter Selinger 2001-2013
</metadata>
<g transform="translate(0.000000,117.000000) scale(0.100000,-0.100000)"
fill="#000000" stroke="none">
<path d="M1108 995 c-10 -10 -126 -19 -228 -18 -58 1 -197 3 -310 5 -271 4
-337 -12 -431 -104 -76 -73 -112 -183 -98 -294 12 -92 87 -223 120 -209 18 8
89 98 122 155 14 25 33 70 42 100 44 143 74 195 139 245 48 37 68 28 100 -48
44 -100 48 -107 83 -128 35 -22 41 -40 19 -58 -15 -12 -12 -103 4 -146 8 -20
6 -29 -10 -45 -16 -16 -34 -20 -95 -20 -41 0 -85 -5 -97 -11 -21 -9 -97 -102
-106 -129 -5 -15 80 -12 165 6 81 16 197 59 254 93 64 38 74 42 44 16 -34 -28
-162 -93 -245 -124 -52 -19 -110 -36 -209 -61 -82 -21 -1 -45 149 -43 216 2
411 140 520 368 64 135 88 227 94 373 4 71 -5 97 -26 77z"/>
</g>
</svg>
